# AST/ASF file generated using VICON BodyLanguage
# -----------------------------------------------
:version 1.10
:name VICON
:units
  mass 1.0
  length 0.45
  angle deg
:documentation
   .ast/.asf automatically generated from VICON data using
   VICON BodyBuilder and BodyLanguage model FoxedUp or BRILLIANT.MOD
:root
   order TX TY TZ RX RY RZ
   axis XYZ
   position 0 0 0  
   orientation 0 0 0 
:bonedata
  begin
     id 1 
     name lhipjoint
     direction 0.523584 -0.783993 0.333487 
     length 2.44404 
     axis 0 0 0  XYZ
  end
  begin
     id 2 
     name lfemur
     direction 0.34202 -0.939693 0  
     length 7.29523  
     axis 0 0 20  XYZ
    dof rx ry rz
    limits (-160.0 20.0)
           (-70.0 70.0)
           (-60.0 70.0)
  end
  begin
     id 3 
     name ltibia
     direction 0.34215 -0.939645 0   
     length 7.81194   
     axis 0 0 20   XYZ
    dof rx
    limits (-10.0 170.0)
  end
  begin
     id 4 
     name lfoot
     direction 0.0941847 -0.25877 0.961336   
     length 2.41437   
     axis -90 7.62852e-016 20   XYZ
    dof rx rz
    limits (-45.0 90.0)
           (-70.0 20.0)
  end
  begin
     id 5 
     name ltoes
     direction 1.53526e-011 -4.21768e-011 1   
     length 1.2048   
     axis -90 7.62852e-016 20   XYZ
    dof rx
    limits (-90.0 20.0)
  end
  begin
     id 6 
     name rhipjoint
     direction -0.46599 -0.814191 0.346332   
     length 2.35339  
     axis 0 0 0  XYZ 
  end
  begin
     id 7 
     name rfemur
     direction -0.34202 -0.939693 0   
     length 7.34966   
     axis 0 0 -20   XYZ
    dof rx ry rz
    limits (-160.0 20.0)
           (-70.0 70.0)
           (-70.0 60.0)
  end
  begin
     id 8 
     name rtibia
     direction -0.34202 -0.939693 0   
     length 7.89934   
     axis 0 0 -20   XYZ
    dof rx
    limits (-10.0 170.0)
 end
 begin
     id 9 
     name rfoot
     direction -0.0975468 -0.268008 0.958466   
     length 2.27725  
     axis -90 -7.62852e-016 -20   XYZ
    dof rx rz
    limits (-45.0 90.0)
           (-20.0 70.0)
  end
  begin
     id 10 
     name rtoes
     direction -1.53563e-011 -4.22022e-011 1   
     length 1.13683   
     axis -90 -7.62852e-016 -20   XYZ
    dof rx
    limits (-90.0 20.0)
  end
  begin
     id 11 
     name lowerback
     direction -0.00456414 0.999242 -0.0386661   
     length 2.16968   
     axis 0 0 0   XYZ
    dof rx ry rz
    limits (-20.0 45.0)
           (-30.0 30.0)
           (-30.0 30.0)
  end
  begin
     id 12 
     name upperback
     direction 0.0297078 0.998988 0.0337799   
     length 2.15674   
     axis 0 0 0   XYZ
    dof rx ry rz
    limits (-20.0 45.0)
           (-30.0 30.0)
           (-30.0 30.0)
  end
  begin
     id 13 
     name thorax
     direction 0.0309305 0.998202 0.0513506   
     length 2.16319   
     axis 0 0 0   XYZ
    dof rx ry rz
    limits (-20.0 45.0)
           (-30.0 30.0)
           (-30.0 30.0)
  end
  begin
     id 14 
     name lowerneck
     direction -0.103039 0.983474 0.148872   
     length 1.64318   
     axis 0 0 0   XYZ
    dof rx ry rz
    limits (-20.0 45.0)
           (-30.0 30.0)
           (-30.0 30.0)
  end
  begin
     id 15 
     name upperneck
     direction 0.128124 0.971079 -0.201469   
     length 1.68242   
     axis 0 0 0   XYZ
    dof rx ry rz
    limits (-20.0 45.0)
           (-30.0 30.0)
           (-30.0 30.0)
  end
  begin
     id 16
     name head
     direction 0.0496365 0.994919 -0.0875941  
     length 1.70108  
     axis 0 0 0   XYZ
    dof rx ry rz
    limits (-20.0 45.0)
           (-30.0 30.0)
           (-30.0 30.0)
  end
  begin
     id 17 
     name lclavicle
     direction 0.887148 0.430222 -0.166967  
     length 3.25763  
     axis 0 0 0   XYZ
    dof ry rz
    limits (-20.0 10.0)
           (0.0 20.0)
  end
  begin
     id 18 
     name lhumerus
     direction 1 -4.48962e-011 1.92156e-027   
     length 5.10755   
     axis 180 -30 -90   XYZ
    dof rx ry rz
    limits (-60.0 90.0)
           (-90.0 90.0)
           (-90.0 90.0)
  end
  begin
     id 19
     name lradius
     direction 1 -4.48958e-011 7.10963e-027   
     length 3.36253   
     axis 180 -30 -90   XYZ
    dof rx
    limits (-10.0 170.0)
  end
  begin
     id 20
     name lwrist
     direction 1 -4.48946e-011 1.82396e-026   
     length 1.68127   
     axis -1.15222e-014 90 90   XYZ
    dof ry
    limits (-180.0 0.0)
 end
  begin
     id 21 
     name lhand
     direction 1 -4.48919e-011 3.64759e-026   
     length 0.619088   
     axis -2.32787e-014 90 90   XYZ
    dof rx rz
    limits (-90.0 90.0)
           (-45.0 45.0)
  end
  begin
     id 22 
     name lfingers
     direction 1 -4.49012e-011 7.29744e-026   
     length 0.499125   
     axis -4.6558e-014 90 90   XYZ
    dof rx
    limits (0.0 90.0)
  end
  begin
     id 23
     name lthumb
     direction 0.707107 -6.35028e-011 0.707107   
     length 0.716646   
     axis -90 45 3.78391e-014   XYZ
    dof rx rz
    limits (-45.0 45.0)
           (-45.0 45.0)
  end
  begin
     id 24 
     name rclavicle
     direction -0.82886 0.533198 -0.169384   
     length 3.20647  
     axis 0 0 0   XYZ 
    dof ry rz
    limits (-10.0 20.0)
           (-20.0 0.0)
  end
  begin
     id 25 
     name rhumerus
     direction -1 -4.48973e-011 3.06863e-027  
     length 5.27387   
     axis 180 30 90   XYZ
    dof rx ry rz
    limits (-90.0 60.0)
           (-90.0 90.0)
           (-90.0 90.0)
  end
  begin
     id 26 
     name rradius
     direction -1 -4.48988e-011 9.4797e-027   
     length 3.40144   
     axis 180 30 90   XYZ
    dof rx
    limits (-10.0 170.0)
  end
  begin
     id 27 
     name rwrist
     direction -1 -4.48897e-011 1.82366e-026   
     length 1.70072   
     axis -1.15222e-014 -90 -90   XYZ
    dof ry
    limits (-180.0 0.0)
  end
  begin
     id 28
     name rhand
     direction -1 -4.48965e-011 3.64815e-026   
     length 0.742821   
     axis -2.32787e-014 -90 -90   XYZ
    dof rx rz
    limits (-90.0 90.0)
           (-45.0 45.0)
  end
  begin
     id 29
     name rfingers
     direction -1 -4.49016e-011 7.29754e-026   
     length 0.598881   
     axis -4.6558e-014 -90 -90   XYZ
    dof rx
    limits (0.0 90.0)
  end
  begin
     id 30
     name rthumb
     direction -0.707107 -6.3488e-011 0.707107   
     length 0.859877   
     axis -90 -45 -3.78391e-014   XYZ
    dof rx rz
    limits (-45.0 45.0)
           (-45.0 45.0)
  end
:hierarchy
  begin
    root lhipjoint rhipjoint lowerback
    lhipjoint lfemur
    lfemur ltibia
    ltibia lfoot
    lfoot ltoes
    rhipjoint rfemur
    rfemur rtibia
    rtibia rfoot
    rfoot rtoes
    lowerback upperback
    upperback thorax
    thorax lowerneck lclavicle rclavicle
    lowerneck upperneck
    upperneck head
    lclavicle lhumerus
    lhumerus lradius
    lradius lwrist
    lwrist lhand lthumb
    lhand lfingers
    rclavicle rhumerus
    rhumerus rradius
    rradius rwrist
    rwrist rhand rthumb
    rhand rfingers
  end

#!OML:ASF F:\Work\Patient Classification 1\justin\Session 1\justin.ASF
:FULLY-SPECIFIED
:DEGREES
1565
root -1.52034 17.7874 -7.00047 177.201 -174.874 -176.243
lowerback 11.9631 1.09151 -6.69699
upperback 1.86914 0.660861 1.44235
thorax -4.8371 0.448763 5.20672
lowerneck -17.1421 -1.99526 -12.6492
upperneck 35.3288 -0.730525 5.65581
head 15.3726 -1.23854 4.50293
rclavicle -9.44227e-015 -2.38542e-015
rhumerus -31.2731 0.88828 -83.4652
rradius 44.1063
rwrist -3.36456
rhand -22.5479 15.3333
rfingers 7.12502
rthumb 3.87965 -14.6111
lclavicle -9.44227e-015 -2.38542e-015
lhumerus -36.3066 10.6952 78.7158
lradius 44.3082
lwrist 7.07343
lhand -16.2388 29.5317
lfingers 7.12502
lthumb 9.9698 59.2756
rfemur -26.7303 -7.79942 13.5756
rtibia 62.9711
rfoot -11.5884 -8.69223
rtoes -11.8559
lfemur -2.70162 1.52487 -27.1496
ltibia 29.3437
lfoot -18.8038 -1.99694
ltoes -16.5175
1566
root -1.52952 17.7845 -6.88049 177.136 -175.105 -175.799
lowerback 11.8656 1.04754 -7.06486
upperback 1.98892 0.560358 1.33657
thorax -4.6439 0.393714 5.3198
lowerneck -17.2694 -2.07029 -12.5452
upperneck 35.2869 -0.802782 5.502
head 15.3919 -1.27403 4.4047
rclavicle 1.3418e-014 -8.74653e-015
rhumerus -31.0316 0.601863 -83.2541
rradius 44.1112
rwrist -3.3956
rhand -22.5646 15.2461
rfingers 7.12502
rthumb 3.8636 -14.6986
lclavicle 1.3418e-014 -8.74653e-015
lhumerus -36.0041 10.3428 78.9131
lradius 44.9583
lwrist 7.43396
lhand -16.1789 30.479
lfingers 7.12502
lthumb 10.0275 60.2202
rfemur -27.296 -8.35509 13.1463
rtibia 61.3264
rfoot -12.1029 -8.72377
rtoes -12.647
lfemur -2.02514 1.47423 -27.6315
ltibia 28.9671
lfoot -18.8895 -2.14169
ltoes -16.5814
1567
root -1.54771 17.7812 -6.75804 177.146 -175.135 -175.722
lowerback 11.701 1.00528 -7.23631
upperback 2.03251 0.499265 1.38963
thorax -4.49921 0.359711 5.48363
lowerneck -17.0316 -2.14648 -12.7496
upperneck 35.098 -0.920317 5.59868
head 15.2634 -1.33147 4.45023
rclavicle -9.74045e-015 1.82882e-014
rhumerus -30.8708 0.501346 -83.0939
rradius 43.9892
rwrist -3.4086
rhand -22.704 14.8934
rfingers 7.12502
rthumb 3.72892 -15.0537
lclavicle -9.74045e-015 1.82882e-014
lhumerus -35.7292 10.2858 78.9823
lradius 45.1318
lwrist 7.32519
lhand -16.4151 30.3112
lfingers 7.12502
lthumb 9.79964 60.0631
rfemur -27.8628 -8.4862 13.2302
rtibia 59.5325
rfoot -12.2288 -8.92939
rtoes -11.6212
lfemur -1.38952 1.5057 -27.6648
ltibia 28.5152
lfoot -18.9479 -2.28927
ltoes -16.7461
1568
root -1.55632 17.7762 -6.64519 177.188 -175.267 -175.48
lowerback 11.8198 0.880722 -7.42331
upperback 1.85882 0.294868 1.3595
thorax -4.71924 0.275612 5.59162
lowerneck -16.547 -2.10276 -12.981
upperneck 34.9726 -0.932754 5.80926
head 15.0935 -1.33682 4.56775
rclavicle 8.84592e-015 7.95139e-015
rhumerus -31.0611 0.594741 -82.9974
rradius 43.8485
rwrist -3.40907
rhand -22.6146 15.2492
rfingers 7.12502
rthumb 3.81527 -14.6964
lclavicle 8.84592e-015 7.95139e-015
lhumerus -35.744 10.2797 78.9298
lradius 45.2427
lwrist 7.23666
lhand -16.3102 29.9703
lfingers 7.12502
lthumb 9.9009 59.7174
rfemur -28.4665 -8.84592 13.0696
rtibia 57.6529
rfoot -12.1192 -9.29568
rtoes -12.9016
lfemur -0.765878 1.55908 -27.9138
ltibia 27.9858
lfoot -18.9107 -2.46932
ltoes -16.9199
1569
root -1.57553 17.7779 -6.53376 177.259 -175.355 -175.368
lowerback 11.9267 0.790867 -7.60377
upperback 1.76757 0.142203 1.37531
thorax -4.85247 0.211841 5.73731
lowerneck -16.9038 -2.00054 -12.79
upperneck 35.3774 -0.729496 5.64041
head 15.343 -1.26483 4.51967
rclavicle 1.49089e-015 -1.03368e-014
rhumerus -31.2015 0.631106 -82.8722
rradius 43.816
rwrist -3.47371
rhand -22.4079 15.5808
rfingers 7.12502
rthumb 4.01491 -14.3612
lclavicle 1.49089e-015 -1.03368e-014
lhumerus -35.6364 10.1981 78.9451
lradius 45.5237
lwrist 7.37992
lhand -16.0262 30.7626
lfingers 7.12502
lthumb 10.1749 60.4965
rfemur -29.0567 -9.05461 13.1642
rtibia 55.6348
rfoot -11.8497 -10.1768
rtoes -15.1009
lfemur -0.188821 1.66377 -27.9505
ltibia 27.4779
lfoot -18.8039 -2.69426
ltoes -16.742
1570
root -1.596 17.7853 -6.41498 177.366 -175.459 -175.299
lowerback 11.8202 0.730089 -7.7427
upperback 1.74968 0.0532175 1.3975
thorax -4.79842 0.1689 5.85391
lowerneck -17.1956 -1.9182 -12.4451
upperneck 35.6853 -0.569469 5.34101
head 15.5386 -1.2045 4.37475
rclavicle -2.28602e-015 -7.95139e-016
rhumerus -31.306 0.492125 -82.7169
rradius 43.8456
rwrist -3.48244
rhand -22.5029 15.2225
rfingers 7.12502
rthumb 3.92311 -14.7211
lclavicle -2.28602e-015 -7.95139e-016
lhumerus -35.4153 9.93505 79.0617
lradius 45.8032
lwrist 7.53962
lhand -16.0537 31.4892
lfingers 7.12502
lthumb 10.1483 61.2245
rfemur -29.5371 -9.23235 13.3112
rtibia 53.4941
rfoot -11.4175 -10.9314
rtoes -13.2959
lfemur 0.406871 1.71185 -27.941
ltibia 26.9335
lfoot -18.7067 -2.88124
ltoes -16.7859
1571
root -1.61446 17.7911 -6.2918 177.422 -175.6 -175.216
lowerback 11.5924 0.682173 -7.82377
upperback 1.78418 -4.42016e-005 1.40554
thorax -4.62667 0.13562 5.91469
lowerneck -17.0827 -1.88044 -12.339
upperneck 35.7083 -0.546417 5.28527
head 15.5186 -1.18915 4.33542
rclavicle -4.57205e-015 -2.38542e-015
rhumerus -31.3172 0.223363 -82.5465
rradius 43.7155
rwrist -3.34977
rhand -22.8442 15.0545
rfingers 7.12502
rthumb 3.59356 -14.8949
lclavicle -4.57205e-015 -2.38542e-015
lhumerus -35.1416 9.56477 79.2375
lradius 46.0087
lwrist 7.68922
lhand -16.2928 30.8889
lfingers 7.12502
lthumb 9.91765 60.6353
rfemur -29.8333 -9.36761 13.3854
rtibia 51.2276
rfoot -10.588 -11.5149
rtoes -9.94014
lfemur 1.12782 1.76652 -27.9489
ltibia 26.3692
lfoot -18.6774 -3.05518
ltoes -17.561
1572
root -1.63396 17.7967 -6.17298 177.468 -175.675 -175.224
lowerback 11.2476 0.660952 -7.85709
upperback 2.064 0.00784971 1.45492
thorax -4.13968 0.110109 5.98
lowerneck -17.2465 -1.99038 -12.4896
upperneck 35.5078 -0.677783 5.4036
head 15.4778 -1.23885 4.38347
rclavicle -1.71949e-014 -1.59028e-014
rhumerus -30.7383 -0.155187 -82.3361
rradius 43.3041
rwrist -3.28228
rhand -23.0374 15.299
rfingers 7.12502
rthumb 3.407 -14.6535
lclavicle -1.71949e-014 -1.59028e-014
lhumerus -34.4255 9.33079 79.4656
lradius 46.1405
lwrist 7.78852
lhand -16.3854 30.2642
lfingers 7.12502
lthumb 9.82838 60.0148
rfemur -30.0687 -9.37333 13.5509
rtibia 48.8401
rfoot -9.65372 -11.9862
rtoes -7.90193
lfemur 1.87734 1.86172 -27.8571
ltibia 25.6889
lfoot -18.547 -3.21732
ltoes -18.2367
1573
root -1.65416 17.8078 -6.05785 177.599 -175.676 -175.218
lowerback 11.3971 0.707516 -7.85131
upperback 1.92874 0.0528709 1.43986
thorax -4.37328 0.1468 5.95623
lowerneck -16.9947 -2.11725 -12.6477
upperneck 35.3952 -0.932274 5.61475
head 15.3973 -1.33493 4.45081
rclavicle 5.46658e-015 1.59028e-014
rhumerus -30.8791 -0.602023 -82.1684
rradius 43.0106
rwrist -3.31404
rhand -23.1868 15.2208
rfingers 7.12502
rthumb 3.26271 -14.734
lclavicle 5.46658e-015 1.59028e-014
lhumerus -34.2775 8.83382 79.5503
lradius 46.3192
lwrist 7.85762
lhand -16.129 31.0981
lfingers 7.12502
lthumb 10.0757 60.8369
rfemur -30.3594 -9.31535 13.7248
rtibia 46.3113
rfoot -8.59985 -12.258
rtoes -7.39583
lfemur 2.43665 1.9197 -27.7983
ltibia 24.9826
lfoot -18.2583 -3.3301
ltoes -18.1442
